<svg xmlns="http://www.w3.org/2000/svg" xmlns:xlink="http://www.w3.org/1999/xlink" height="800" width="1200" version="1.0" viewBox="-42.9783 -64.79925 372.4786 388.7955"><defs><linearGradient y2="413.344" x2="1171.375" y1="412.295" x1="1194.631" gradientTransform="translate(2239.551 1022.706) scale(.91531)" gradientUnits="userSpaceOnUse" id="o" xlink:href="#a"/><linearGradient id="b"><stop offset="0" stop-color="#f9cd9f"/><stop offset="1" stop-color="#f9cd9f" stop-opacity="0"/></linearGradient><linearGradient y2="461.956" x2="3359.737" y1="464.751" x1="3350.254" gradientTransform="matrix(.87592 0 0 .84508 2877.878 1271.83)" gradientUnits="userSpaceOnUse" id="n" xlink:href="#b"/><linearGradient y2="499.902" x2="3372.154" y1="504.722" x1="3368.67" gradientTransform="matrix(-1.05496 .06474 .05778 1.18208 4480.016 1225.353)" gradientUnits="userSpaceOnUse" id="m" xlink:href="#c"/><linearGradient id="c"><stop offset="0" stop-color="#f6bb7c"/><stop offset="1" stop-color="#f6bb7c" stop-opacity="0"/></linearGradient><linearGradient y2="501.925" x2="3359.935" y1="502.409" x1="3343.341" gradientTransform="matrix(1.0553 .05732 -.05116 1.18247 2251.536 1235.549)" gradientUnits="userSpaceOnUse" id="l" xlink:href="#c"/><linearGradient id="a"><stop offset="0" stop-color="#171815"/><stop offset="1" stop-color="#171815" stop-opacity="0"/></linearGradient><linearGradient y2="440.096" x2="1285.949" y1="427.079" x1="1271.343" gradientTransform="translate(2239.551 1022.706) scale(.91531)" gradientUnits="userSpaceOnUse" id="k" xlink:href="#a"/><linearGradient y2="619.613" x2="3355.937" y1="619.613" x1="3275.31" gradientTransform="translate(7987.484 7490.317) scale(3.24544)" gradientUnits="userSpaceOnUse" id="j" xlink:href="#d"/><linearGradient id="d"><stop offset="0" stop-color="#5d6b4c"/><stop offset="1" stop-color="#daeac6"/></linearGradient><linearGradient gradientTransform="translate(0 -14.37)" gradientUnits="userSpaceOnUse" y2="598.501" x2="3315.624" y1="650.532" x1="3288.43" id="i" xlink:href="#d"/><linearGradient id="e"><stop offset="0" stop-color="#373737"/><stop offset="1" stop-color="#171717"/></linearGradient><linearGradient y2="619.613" x2="3358.183" y1="619.613" x1="3273.064" gradientTransform="translate(4402.845 2122.899) scale(.91531)" gradientUnits="userSpaceOnUse" id="h" xlink:href="#e"/><linearGradient id="f"><stop offset="0" stop-color="#9fae8d"/><stop offset="1" stop-color="#fff"/></linearGradient><linearGradient y2="-2369.346" x2="-2479.45" y1="-2276.981" x1="-2564.118" gradientTransform="matrix(-.7061 0 0 .7061 1538.025 2255.665)" gradientUnits="userSpaceOnUse" id="g" xlink:href="#f"/></defs><path d="M149.063 3.491c-44.194 1.684-55.56 41.3-47.43 75.842-.737.24-3.54 1.2-8.234 2.783-.207.071-.372.161-.58.232C66.267 91.32-7.246 117.231 4.802 125.835c7.329 5.235 29.926 9.58 52.301 11.597 4.042.364 8.128.73 12.06.928.038 2.778-.233 5.691-.695 8.813-5.435 36.61 14.53 88.016 77.465 93.585 48.212 4.266 85.015-34.651 89.062-70.855 18.725 7.795 37.482 13.581 45.575 12.64 15.725-1.828-47.858-88.838-76.19-107.269 6.113-31.992-7.843-72.25-53.112-71.783-.72.008-1.501-.026-2.204 0z" fill="#4a4a44" fill-rule="evenodd" stroke="#21211e" stroke-width="6.958"/><path d="M194.538 248.504c-24.351 6.936-39.505 12.6-37.878 2.601 1.59-9.774 18.484-19.646 34.721-24.292 17.386-4.975 46.291 16.001 46.635 24.798.282 7.217-23.99-6.908-43.478-3.107z" style="marker:none" color="#000" overflow="visible" fill="#f09c42" stroke="#21211e" stroke-width="5.288" stroke-linecap="round" stroke-linejoin="round"/><path style="marker:none" d="M124.284 248.504c24.78 6.936 40.198 12.6 38.543 2.601-1.617-9.774-18.808-19.646-35.33-24.292-17.691-4.975-47.103 16.001-47.453 24.798-.285 7.217 24.412-6.908 44.24-3.107z" color="#000" overflow="visible" fill="#f09c42" stroke="#464640" stroke-linecap="round" stroke-linejoin="round" stroke-width="3.711"/><path style="marker:none" d="M3302.504 581.503a40.305 40.305 0 0151.224 24.973 40.305 40.305 0 01-24.951 51.235 40.305 40.305 0 01-51.246-24.93 40.305 40.305 0 0124.907-51.256" transform="matrix(-1.76008 0 0 1.76008 5988.618 -933.058)" color="#000" overflow="visible" fill="url(#g)"/><path transform="translate(-5682.901 -933.058) scale(1.76008)" d="M3302.504 581.503a40.305 40.305 0 0151.224 24.973 40.305 40.305 0 01-24.951 51.235 40.305 40.305 0 01-51.246-24.93 40.305 40.305 0 0124.907-51.256" style="marker:none" color="#000" overflow="visible" fill="none" stroke="url(#h)" stroke-width="4.491" stroke-linecap="round" stroke-linejoin="round"/><path d="M151.336 105.992c-35.779-.879-62.942 44.083-44.541 75.173 14.155 28.46 57.451 38.18 80.679 14.82 21.58-19.568 23.337-58.494-.455-76.954-9.747-8.586-22.673-13.671-35.683-13.04z" style="marker:none" color="#000" overflow="visible" fill="#171815"/><path transform="translate(-1414.617 -134.453) scale(.47276)" d="M3302.504 581.503a40.305 40.305 0 0151.224 24.973 40.305 40.305 0 01-24.951 51.235 40.305 40.305 0 01-51.246-24.93 40.305 40.305 0 0124.907-51.256" style="marker:none" color="#000" overflow="visible" fill="url(#i)" stroke="url(#j)" stroke-width="6.289" stroke-linecap="round" stroke-linejoin="round"/><path style="marker:none" d="M151.336 105.992c-35.779-.879-62.942 44.083-44.541 75.173 14.155 28.46 57.451 38.18 80.679 14.82 21.58-19.568 23.337-58.494-.455-76.954-9.747-8.586-22.673-13.671-35.683-13.04z" color="#000" overflow="visible" fill="none"/><path d="M154.602 209.654l-.33-18.876m-1.446-65.058v-19.538m32.11 51.338l19.54-.137m-103.656 1.582l19.542-.469m5.209-45.416l5.59 10.767m48.244-11.247l-5.59 10.765m-45.355 79.437l5.59-10.766m45.255 10.766l-5.59-10.766m25.262-59.009l-11.235 4.574m10.801 44.345l-12.685-5.163m-68.242-36.775l-11.236-4.573m12.199 42.365l-11.236 4.574" fill="none" stroke="#fff" stroke-width="4.739"/><path d="M149.783 64.334c-17.951-1.15-29.861 1.428-27.717 13.556 2.095 11.854 15.41 23.618 27.38 24.412 12.82.85 30.74-15.557 30.112-26.781-.516-9.208-15.583-12.48-29.775-11.187z" style="marker:none" color="#000" overflow="visible" fill="#f09c42" stroke="#21211e" stroke-linecap="round" stroke-linejoin="round" stroke-width="3.711"/><path d="M3380.214 482.675c1.633-3.362-1.228-10.515-.783-10.996 1.437-1.553 9.395 14.266 9.395 14.266s-7.058-2.03-8.612-3.27z" fill="url(#k)" fill-rule="evenodd" transform="translate(-12311.38 -1626.528) scale(3.71092)"/><path d="M124.284 248.504c24.78 6.936 40.198 12.6 38.543 2.601-1.617-9.774-18.808-19.646-35.33-24.292-17.691-4.975-47.103 16.001-47.453 24.798-.285 7.217 24.412-6.908 44.24-3.107z" style="marker:none" color="#000" overflow="visible" fill="#f09c42" stroke="#21211e" stroke-width="5.288" stroke-linecap="round" stroke-linejoin="round"/><path transform="matrix(2.93225 -.14214 .12685 2.61692 -9771.172 -596.581)" d="M3351.594 498.531c-4.16-1.17-11.074 3.744-11.156 5.813-.068 1.697 5.742-1.613 10.406-.719 5.827 1.631 9.452 2.945 9.062.594-.38-2.299-4.427-4.595-8.312-5.688z" style="marker:none" color="#000" overflow="visible" fill="url(#l)"/><path style="marker:none" d="M3351.594 498.531c-4.16-1.17-11.074 3.744-11.156 5.813-.068 1.697 5.742-1.613 10.406-.719 5.827 1.631 9.452 2.945 9.062.594-.38-2.299-4.427-4.595-8.312-5.688z" transform="matrix(-2.9313 .16054 .14327 2.61607 9944.25 -1608.106)" color="#000" overflow="visible" fill="url(#m)"/><path transform="matrix(2.94778 0 0 3.05535 -9749.178 -1338.614)" d="M3353.969 460.281c-2.545.19-4.035 1.08-3.656 3.219.492 2.788 3.622 5.563 6.437 5.75 3.015.2 7.241-3.673 7.094-6.313-.121-2.165-3.663-2.928-7-2.625-1.056-.067-2.027-.094-2.875-.03z" style="marker:none" color="#000" overflow="visible" fill="url(#n)"/><path d="M3336.755 475.518c.287-2.76 4.81-6.691 4.648-7.327-.52-2.05-13.497 6.285-13.497 6.285s6.892 1.39 8.85 1.042z" fill="url(#o)" fill-rule="evenodd" transform="translate(-12311.38 -1626.528) scale(3.71092)"/><path d="M98.525 38.218c-.411 1.522-1.687 5.542-2.035 7.892 2.507 3.087 8.923 4.33 11.839 7.152.02.012.045.05.06.062.107.086.23.205.31.308 1.269 1.773-.636 5.864 12.393 9.804 13.922 4.21 16.416 3.786 19.607 2.837 3.192-.95 4.81-5.673 4.81-5.673s1.082-5.707 5.118-6.166c0 .002.055-.002.06 0 .02-.002.046.001.062 0h.061c.083.004.166-.008.247 0 0-.002.053.002.061 0 4.036.46 5.118 6.166 5.118 6.166s1.617 4.723 4.81 5.673c3.19.95 5.685 1.373 19.607-2.837 14.133-4.274 10.655-8.69 12.763-10.174 2.916-2.823 9.332-4.066 11.839-7.152-.348-2.35-1.624-6.37-2.035-7.893 0 .008-.055.056-.06.062-.819.428-9.283 5.504-10.113 5.858-2.249-4.695-5.531-4.875-20.348-1.788-14.353 2.99-17.862 7.49-18.066 7.769h-7.522c-.204-.28-3.713-4.78-18.066-7.77-14.817-3.086-18.1-2.906-20.348 1.789-.83-.354-9.294-5.43-10.112-5.858 0-.006-.055-.054-.061-.062z" fill="#0c0c0c" fill-rule="evenodd" stroke="#000" stroke-width="2.328"/></svg>